<svg width="94" height="94" viewBox="0 0 94 94" fill="none" xmlns="http://www.w3.org/2000/svg">
<path d="M88.4387 42.2729H83.4627C82.4247 34.088 78.6955 26.4803 72.8616 20.6463C67.0276 14.8123 59.4199 11.0831 51.235 10.0452V5.06919C51.235 3.83581 50.7451 2.65295 49.8729 1.78082C49.0008 0.908689 47.8179 0.418732 46.5845 0.418732C45.3512 0.418732 44.1683 0.908689 43.2962 1.78082C42.424 2.65295 41.9341 3.83581 41.9341 5.06919V10.0452C33.7492 11.0831 26.1415 14.8123 20.3075 20.6463C14.4736 26.4803 10.7444 34.088 9.70641 42.2729H4.73042C3.49704 42.2729 2.31417 42.7628 1.44204 43.635C0.569914 44.5071 0.0799561 45.6899 0.0799561 46.9233C0.0799561 48.1567 0.569914 49.3396 1.44204 50.2117C2.31417 51.0838 3.49704 51.5738 4.73042 51.5738H9.70641C10.7444 59.7587 14.4736 67.3664 20.3075 73.2003C26.1415 79.0343 33.7492 82.7635 41.9341 83.8015V88.7775C41.9341 90.0108 42.424 91.1937 43.2962 92.0658C44.1683 92.938 45.3512 93.4279 46.5845 93.4279C47.8179 93.4279 49.0008 92.938 49.8729 92.0658C50.7451 91.1937 51.235 90.0108 51.235 88.7775V83.8015C59.4199 82.7635 67.0276 79.0343 72.8616 73.2003C78.6955 67.3664 82.4247 59.7587 83.4627 51.5738H88.4387C89.6721 51.5738 90.8549 51.0838 91.7271 50.2117C92.5992 49.3396 93.0891 48.1567 93.0891 46.9233C93.0891 45.6899 92.5992 44.5071 91.7271 43.635C90.8549 42.7628 89.6721 42.2729 88.4387 42.2729ZM46.5845 74.8261C41.0659 74.8261 35.6712 73.1896 31.0826 70.1236C26.494 67.0576 22.9177 62.6998 20.8058 57.6012C18.6939 52.5027 18.1413 46.8924 19.2179 41.4798C20.2946 36.0672 22.9521 31.0954 26.8543 27.1931C30.7566 23.2908 35.7284 20.6333 41.141 19.5567C46.5536 18.4801 52.1639 19.0326 57.2625 21.1445C62.361 23.2564 66.7188 26.8328 69.7848 31.4214C72.8508 36.01 74.4873 41.4047 74.4873 46.9233C74.4873 54.3236 71.5476 61.4208 66.3148 66.6536C61.082 71.8863 53.9848 74.8261 46.5845 74.8261ZM46.5845 32.9719C43.8252 32.9719 41.1279 33.7902 38.8336 35.3232C36.5393 36.8562 34.7511 39.0351 33.6952 41.5844C32.6392 44.1336 32.3629 46.9388 32.9012 49.6451C33.4396 52.3514 34.7683 54.8373 36.7194 56.7884C38.6706 58.7396 41.1565 60.0683 43.8628 60.6066C46.5691 61.145 49.3742 60.8687 51.9235 59.8127C54.4728 58.7568 56.6517 56.9686 58.1847 54.6743C59.7177 52.38 60.5359 49.6826 60.5359 46.9233C60.5359 43.2232 59.0661 39.6746 56.4497 37.0582C53.8333 34.4418 50.2847 32.9719 46.5845 32.9719ZM46.5845 51.5738C45.6648 51.5738 44.7657 51.301 44.0009 50.79C43.2361 50.279 42.6401 49.5527 42.2881 48.703C41.9361 47.8532 41.844 46.9182 42.0234 46.0161C42.2029 45.114 42.6458 44.2853 43.2962 43.635C43.9466 42.9846 44.7752 42.5417 45.6773 42.3622C46.5794 42.1828 47.5144 42.2749 48.3642 42.6269C49.214 42.9788 49.9403 43.5749 50.4513 44.3397C50.9623 45.1044 51.235 46.0036 51.235 46.9233C51.235 48.1567 50.7451 49.3396 49.8729 50.2117C49.0008 51.0838 47.8179 51.5738 46.5845 51.5738Z" fill="#8AC926"/>
</svg>
