<svg width="384" height="283" viewBox="0 0 384 283" fill="none" xmlns="http://www.w3.org/2000/svg">
<path fill-rule="evenodd" clip-rule="evenodd" d="M252.943 142.595L247.629 141.821L248.493 135.884L253.807 136.658L252.943 142.595ZM237.001 140.274L226.372 138.726L227.237 132.789L237.865 134.336L237.001 140.274ZM215.744 137.178L205.116 135.631L205.981 129.693L216.609 131.241L215.744 137.178ZM194.488 134.083L183.86 132.535L184.724 126.598L195.352 128.145L194.488 134.083ZM171.397 130.72L173.232 130.987L174.096 125.05L165.302 123.769L165.425 132.818L171.424 132.736L171.397 130.72ZM171.574 143.801L171.724 154.866L165.725 154.947L165.575 143.882L171.574 143.801ZM171.874 165.93L172.024 176.995L166.024 177.076L165.874 166.011L171.874 165.93ZM172.174 188.059L172.323 199.124L166.324 199.205L166.174 188.141L172.174 188.059ZM172.473 210.189L172.623 221.253L166.624 221.334L166.474 210.27L172.473 210.189ZM172.773 232.318L172.923 243.382L166.923 243.464L166.774 232.399L172.773 232.318ZM173.073 254.447L173.253 267.783L163.87 257.66L167.075 254.69L167.073 254.528L167.252 254.526L168.271 253.582L169.123 254.501L173.073 254.447ZM155.716 248.862L147.561 240.064L151.961 235.986L160.116 244.784L155.716 248.862ZM139.406 231.266L131.251 222.468L135.652 218.39L143.807 227.188L139.406 231.266ZM123.097 213.67L114.942 204.872L119.342 200.794L127.497 209.592L123.097 213.67ZM106.787 196.074L98.6325 187.276L103.033 183.198L111.188 191.996L106.787 196.074ZM90.4778 178.478L82.3231 169.68L86.7235 165.602L94.8783 174.4L90.4778 178.478ZM52.3753 107.478L62.2661 139.215L57.8656 143.294L26.9692 131.026L52.3753 107.478ZM74.1683 160.882L66.0136 152.084L70.414 148.006L78.5688 156.804L74.1683 160.882Z" fill="url(#paint0_linear_43_260)"/>
<path d="M323.439 140.273H318.463C317.425 132.088 313.696 124.48 307.862 118.646C302.028 112.812 294.42 109.083 286.235 108.045V103.069C286.235 101.836 285.745 100.653 284.873 99.7808C284.001 98.9087 282.818 98.4187 281.585 98.4187C280.351 98.4187 279.168 98.9087 278.296 99.7808C277.424 100.653 276.934 101.836 276.934 103.069V108.045C268.749 109.083 261.141 112.812 255.308 118.646C249.474 124.48 245.744 132.088 244.706 140.273H239.73C238.497 140.273 237.314 140.763 236.442 141.635C235.57 142.507 235.08 143.69 235.08 144.923C235.08 146.157 235.57 147.34 236.442 148.212C237.314 149.084 238.497 149.574 239.73 149.574H244.706C245.744 157.759 249.474 165.366 255.308 171.2C261.141 177.034 268.749 180.764 276.934 181.801V186.777C276.934 188.011 277.424 189.194 278.296 190.066C279.168 190.938 280.351 191.428 281.585 191.428C282.818 191.428 284.001 190.938 284.873 190.066C285.745 189.194 286.235 188.011 286.235 186.777V181.801C294.42 180.764 302.028 177.034 307.862 171.2C313.696 165.366 317.425 157.759 318.463 149.574H323.439C324.672 149.574 325.855 149.084 326.727 148.212C327.599 147.34 328.089 146.157 328.089 144.923C328.089 143.69 327.599 142.507 326.727 141.635C325.855 140.763 324.672 140.273 323.439 140.273ZM281.585 172.826C276.066 172.826 270.671 171.19 266.083 168.124C261.494 165.058 257.918 160.7 255.806 155.601C253.694 150.503 253.141 144.892 254.218 139.48C255.295 134.067 257.952 129.095 261.854 125.193C265.757 121.291 270.728 118.633 276.141 117.557C281.554 116.48 287.164 117.033 292.262 119.145C297.361 121.256 301.719 124.833 304.785 129.421C307.851 134.01 309.487 139.405 309.487 144.923C309.487 152.324 306.548 159.421 301.315 164.654C296.082 169.886 288.985 172.826 281.585 172.826ZM281.585 130.972C278.825 130.972 276.128 131.79 273.834 133.323C271.539 134.856 269.751 137.035 268.695 139.584C267.639 142.134 267.363 144.939 267.901 147.645C268.44 150.351 269.768 152.837 271.719 154.788C273.671 156.74 276.156 158.068 278.863 158.607C281.569 159.145 284.374 158.869 286.924 157.813C289.473 156.757 291.652 154.969 293.185 152.674C294.718 150.38 295.536 147.683 295.536 144.923C295.536 141.223 294.066 137.675 291.45 135.058C288.833 132.442 285.285 130.972 281.585 130.972ZM281.585 149.574C280.665 149.574 279.766 149.301 279.001 148.79C278.236 148.279 277.64 147.553 277.288 146.703C276.936 145.853 276.844 144.918 277.023 144.016C277.203 143.114 277.646 142.285 278.296 141.635C278.947 140.985 279.775 140.542 280.677 140.362C281.579 140.183 282.514 140.275 283.364 140.627C284.214 140.979 284.94 141.575 285.451 142.34C285.962 143.104 286.235 144.004 286.235 144.923C286.235 146.157 285.745 147.34 284.873 148.212C284.001 149.084 282.818 149.574 281.585 149.574Z" fill="#8AC926"/>
<defs>
<linearGradient id="paint0_linear_43_260" x1="240.475" y1="115.908" x2="84.1052" y2="200.951" gradientUnits="userSpaceOnUse">
<stop stop-color="#4F10A8"/>
<stop offset="1" stop-color="#A27CD7"/>
</linearGradient>
</defs>
</svg>
